<mxfile host="app.diagrams.net" modified="2020-12-14T09:08:56.347Z" agent="5.0 (Windows NT 10.0; Win64; x64) AppleWebKit/537.36 (KHTML, like Gecko) Chrome/87.0.4280.88 Safari/537.36" etag="A1ZWzTMYB0MON61701RW" version="14.0.1" type="github">
  <diagram id="GNkqIk62QmqRSmwptaz8" name="Page-1">
    <mxGraphModel dx="2031" dy="1134" grid="1" gridSize="10" guides="1" tooltips="1" connect="1" arrows="1" fold="1" page="1" pageScale="1" pageWidth="827" pageHeight="1169" math="0" shadow="0">
      <root>
        <mxCell id="0" />
        <mxCell id="1" parent="0" />
        <mxCell id="1AWNu8xPyGZ1tLXDtP6U-1" value="START" style="rounded=1;whiteSpace=wrap;html=1;" vertex="1" parent="1">
          <mxGeometry x="340" y="20" width="120" height="60" as="geometry" />
        </mxCell>
        <mxCell id="1AWNu8xPyGZ1tLXDtP6U-2" value="" style="endArrow=classic;html=1;" edge="1" parent="1">
          <mxGeometry width="50" height="50" relative="1" as="geometry">
            <mxPoint x="399.5" y="90" as="sourcePoint" />
            <mxPoint x="400" y="120" as="targetPoint" />
          </mxGeometry>
        </mxCell>
        <mxCell id="1AWNu8xPyGZ1tLXDtP6U-5" value="" style="edgeStyle=orthogonalEdgeStyle;rounded=0;orthogonalLoop=1;jettySize=auto;html=1;" edge="1" parent="1">
          <mxGeometry relative="1" as="geometry">
            <mxPoint x="400" y="200" as="sourcePoint" />
            <mxPoint x="400" y="230" as="targetPoint" />
          </mxGeometry>
        </mxCell>
        <mxCell id="1AWNu8xPyGZ1tLXDtP6U-3" value="Utmatning&lt;br&gt;Gissa på ett tal mellan 1 -100" style="shape=parallelogram;perimeter=parallelogramPerimeter;whiteSpace=wrap;html=1;fixedSize=1;" vertex="1" parent="1">
          <mxGeometry x="285" y="130" width="230" height="60" as="geometry" />
        </mxCell>
        <mxCell id="1AWNu8xPyGZ1tLXDtP6U-4" value="Slumptal" style="rhombus;whiteSpace=wrap;html=1;" vertex="1" parent="1">
          <mxGeometry x="360" y="240" width="80" height="80" as="geometry" />
        </mxCell>
        <mxCell id="1AWNu8xPyGZ1tLXDtP6U-6" value="" style="endArrow=classic;html=1;" edge="1" parent="1">
          <mxGeometry width="50" height="50" relative="1" as="geometry">
            <mxPoint x="399.5" y="330" as="sourcePoint" />
            <mxPoint x="400" y="360" as="targetPoint" />
          </mxGeometry>
        </mxCell>
        <mxCell id="1AWNu8xPyGZ1tLXDtP6U-7" value="" style="endArrow=classic;html=1;" edge="1" parent="1">
          <mxGeometry width="50" height="50" relative="1" as="geometry">
            <mxPoint x="350" y="90" as="sourcePoint" />
            <mxPoint x="350.5" y="120" as="targetPoint" />
          </mxGeometry>
        </mxCell>
        <mxCell id="1AWNu8xPyGZ1tLXDtP6U-8" value="Inmatning&lt;br&gt;Skriv ett tal mellan 1 - 100" style="shape=parallelogram;perimeter=parallelogramPerimeter;whiteSpace=wrap;html=1;fixedSize=1;" vertex="1" parent="1">
          <mxGeometry x="285" y="370" width="230" height="60" as="geometry" />
        </mxCell>
        <mxCell id="1AWNu8xPyGZ1tLXDtP6U-10" value="" style="endArrow=classic;html=1;" edge="1" parent="1">
          <mxGeometry width="50" height="50" relative="1" as="geometry">
            <mxPoint x="399.5" y="440" as="sourcePoint" />
            <mxPoint x="400" y="470" as="targetPoint" />
          </mxGeometry>
        </mxCell>
        <mxCell id="1AWNu8xPyGZ1tLXDtP6U-11" value="Inmatning&lt;br&gt;Lägre än 1" style="rhombus;whiteSpace=wrap;html=1;" vertex="1" parent="1">
          <mxGeometry x="342.5" y="475" width="115" height="110" as="geometry" />
        </mxCell>
        <mxCell id="1AWNu8xPyGZ1tLXDtP6U-12" value="Inmatning&lt;br&gt;Högre än 100" style="rhombus;whiteSpace=wrap;html=1;" vertex="1" parent="1">
          <mxGeometry x="342.5" y="600" width="115" height="110" as="geometry" />
        </mxCell>
        <mxCell id="1AWNu8xPyGZ1tLXDtP6U-13" value="Inmatning&lt;br&gt;Slumptal" style="rhombus;whiteSpace=wrap;html=1;" vertex="1" parent="1">
          <mxGeometry x="345" y="750" width="110" height="100" as="geometry" />
        </mxCell>
        <mxCell id="1AWNu8xPyGZ1tLXDtP6U-14" value="Utmatning&lt;br&gt;Tal lägre än 1" style="shape=parallelogram;perimeter=parallelogramPerimeter;whiteSpace=wrap;html=1;fixedSize=1;" vertex="1" parent="1">
          <mxGeometry x="110" y="500" width="150" height="60" as="geometry" />
        </mxCell>
        <mxCell id="1AWNu8xPyGZ1tLXDtP6U-15" value="Utmatning&lt;br&gt;Tal högre än 1" style="shape=parallelogram;perimeter=parallelogramPerimeter;whiteSpace=wrap;html=1;fixedSize=1;" vertex="1" parent="1">
          <mxGeometry x="110" y="625" width="150" height="60" as="geometry" />
        </mxCell>
        <mxCell id="1AWNu8xPyGZ1tLXDtP6U-16" value="Utmatning&lt;br&gt;Fel tal" style="shape=parallelogram;perimeter=parallelogramPerimeter;whiteSpace=wrap;html=1;fixedSize=1;" vertex="1" parent="1">
          <mxGeometry x="110" y="770" width="150" height="60" as="geometry" />
        </mxCell>
        <mxCell id="1AWNu8xPyGZ1tLXDtP6U-17" value="Utmatning&lt;br&gt;Rätt tal" style="shape=parallelogram;perimeter=parallelogramPerimeter;whiteSpace=wrap;html=1;fixedSize=1;" vertex="1" parent="1">
          <mxGeometry x="530" y="770" width="150" height="60" as="geometry" />
        </mxCell>
        <mxCell id="1AWNu8xPyGZ1tLXDtP6U-18" value="Utmatning&lt;br&gt;Rätt tal, det tog dig (antal gånger)" style="shape=parallelogram;perimeter=parallelogramPerimeter;whiteSpace=wrap;html=1;fixedSize=1;" vertex="1" parent="1">
          <mxGeometry x="280" y="890" width="240" height="130" as="geometry" />
        </mxCell>
        <mxCell id="1AWNu8xPyGZ1tLXDtP6U-19" value="" style="endArrow=classic;html=1;exitX=1;exitY=0.5;exitDx=0;exitDy=0;entryX=0;entryY=0.5;entryDx=0;entryDy=0;" edge="1" parent="1" source="1AWNu8xPyGZ1tLXDtP6U-13" target="1AWNu8xPyGZ1tLXDtP6U-17">
          <mxGeometry width="50" height="50" relative="1" as="geometry">
            <mxPoint x="470" y="765" as="sourcePoint" />
            <mxPoint x="520" y="775" as="targetPoint" />
            <Array as="points" />
          </mxGeometry>
        </mxCell>
        <mxCell id="1AWNu8xPyGZ1tLXDtP6U-20" value="" style="endArrow=classic;html=1;entryX=1;entryY=0.5;entryDx=0;entryDy=0;" edge="1" parent="1" source="1AWNu8xPyGZ1tLXDtP6U-17" target="1AWNu8xPyGZ1tLXDtP6U-18">
          <mxGeometry width="50" height="50" relative="1" as="geometry">
            <mxPoint x="690" y="800" as="sourcePoint" />
            <mxPoint x="770" y="1000" as="targetPoint" />
            <Array as="points">
              <mxPoint x="770" y="796" />
              <mxPoint x="770" y="955" />
            </Array>
          </mxGeometry>
        </mxCell>
        <mxCell id="1AWNu8xPyGZ1tLXDtP6U-24" value="" style="endArrow=classic;html=1;exitX=0;exitY=0.5;exitDx=0;exitDy=0;" edge="1" parent="1" source="1AWNu8xPyGZ1tLXDtP6U-13" target="1AWNu8xPyGZ1tLXDtP6U-16">
          <mxGeometry width="50" height="50" relative="1" as="geometry">
            <mxPoint x="345" y="830" as="sourcePoint" />
            <mxPoint x="345" y="769.5" as="targetPoint" />
            <Array as="points" />
          </mxGeometry>
        </mxCell>
        <mxCell id="1AWNu8xPyGZ1tLXDtP6U-25" value="" style="endArrow=classic;html=1;exitX=0;exitY=0.5;exitDx=0;exitDy=0;entryX=0;entryY=0.5;entryDx=0;entryDy=0;" edge="1" parent="1" source="1AWNu8xPyGZ1tLXDtP6U-16" target="1AWNu8xPyGZ1tLXDtP6U-1">
          <mxGeometry width="50" height="50" relative="1" as="geometry">
            <mxPoint x="40" y="790" as="sourcePoint" />
            <mxPoint x="40" y="130" as="targetPoint" />
            <Array as="points">
              <mxPoint x="40" y="800" />
              <mxPoint x="40" y="50" />
            </Array>
          </mxGeometry>
        </mxCell>
        <mxCell id="1AWNu8xPyGZ1tLXDtP6U-26" value="" style="endArrow=classic;html=1;exitX=0.287;exitY=1.017;exitDx=0;exitDy=0;exitPerimeter=0;entryX=0.287;entryY=-0.033;entryDx=0;entryDy=0;entryPerimeter=0;" edge="1" parent="1" source="1AWNu8xPyGZ1tLXDtP6U-3" target="1AWNu8xPyGZ1tLXDtP6U-8">
          <mxGeometry width="50" height="50" relative="1" as="geometry">
            <mxPoint x="350" y="215" as="sourcePoint" />
            <mxPoint x="350" y="345" as="targetPoint" />
          </mxGeometry>
        </mxCell>
        <mxCell id="1AWNu8xPyGZ1tLXDtP6U-27" value="" style="endArrow=classic;html=1;" edge="1" parent="1" source="1AWNu8xPyGZ1tLXDtP6U-14">
          <mxGeometry width="50" height="50" relative="1" as="geometry">
            <mxPoint x="60" y="570" as="sourcePoint" />
            <mxPoint x="40" y="530" as="targetPoint" />
          </mxGeometry>
        </mxCell>
        <mxCell id="1AWNu8xPyGZ1tLXDtP6U-28" value="" style="endArrow=classic;html=1;entryX=1;entryY=0.5;entryDx=0;entryDy=0;" edge="1" parent="1" target="1AWNu8xPyGZ1tLXDtP6U-14">
          <mxGeometry width="50" height="50" relative="1" as="geometry">
            <mxPoint x="340" y="530" as="sourcePoint" />
            <mxPoint x="320" y="520" as="targetPoint" />
          </mxGeometry>
        </mxCell>
        <mxCell id="1AWNu8xPyGZ1tLXDtP6U-29" value="" style="endArrow=classic;html=1;entryX=1;entryY=0.5;entryDx=0;entryDy=0;exitX=1;exitY=0.5;exitDx=0;exitDy=0;" edge="1" parent="1" source="1AWNu8xPyGZ1tLXDtP6U-11" target="1AWNu8xPyGZ1tLXDtP6U-12">
          <mxGeometry width="50" height="50" relative="1" as="geometry">
            <mxPoint x="480" y="570" as="sourcePoint" />
            <mxPoint x="530" y="520" as="targetPoint" />
            <Array as="points">
              <mxPoint x="570" y="530" />
              <mxPoint x="570" y="655" />
            </Array>
          </mxGeometry>
        </mxCell>
        <mxCell id="1AWNu8xPyGZ1tLXDtP6U-30" value="" style="endArrow=classic;html=1;exitX=0;exitY=0.5;exitDx=0;exitDy=0;entryX=1;entryY=0.5;entryDx=0;entryDy=0;" edge="1" parent="1" source="1AWNu8xPyGZ1tLXDtP6U-12" target="1AWNu8xPyGZ1tLXDtP6U-15">
          <mxGeometry width="50" height="50" relative="1" as="geometry">
            <mxPoint x="260" y="705" as="sourcePoint" />
            <mxPoint x="280" y="700" as="targetPoint" />
          </mxGeometry>
        </mxCell>
        <mxCell id="1AWNu8xPyGZ1tLXDtP6U-31" value="" style="endArrow=classic;html=1;exitX=0.5;exitY=1;exitDx=0;exitDy=0;entryX=0.5;entryY=0;entryDx=0;entryDy=0;" edge="1" parent="1" source="1AWNu8xPyGZ1tLXDtP6U-12" target="1AWNu8xPyGZ1tLXDtP6U-13">
          <mxGeometry width="50" height="50" relative="1" as="geometry">
            <mxPoint x="380" y="760" as="sourcePoint" />
            <mxPoint x="440" y="740" as="targetPoint" />
          </mxGeometry>
        </mxCell>
        <mxCell id="1AWNu8xPyGZ1tLXDtP6U-32" value="" style="endArrow=classic;html=1;exitX=0;exitY=0.5;exitDx=0;exitDy=0;" edge="1" parent="1" source="1AWNu8xPyGZ1tLXDtP6U-15">
          <mxGeometry width="50" height="50" relative="1" as="geometry">
            <mxPoint x="70" y="670" as="sourcePoint" />
            <mxPoint x="40" y="655" as="targetPoint" />
          </mxGeometry>
        </mxCell>
        <mxCell id="1AWNu8xPyGZ1tLXDtP6U-33" value="Rätt" style="text;html=1;strokeColor=none;fillColor=none;align=center;verticalAlign=middle;whiteSpace=wrap;rounded=0;" vertex="1" parent="1">
          <mxGeometry x="285" y="490" width="40" height="20" as="geometry" />
        </mxCell>
        <mxCell id="1AWNu8xPyGZ1tLXDtP6U-34" value="Fel" style="text;html=1;strokeColor=none;fillColor=none;align=center;verticalAlign=middle;whiteSpace=wrap;rounded=0;" vertex="1" parent="1">
          <mxGeometry x="500" y="500" width="40" height="20" as="geometry" />
        </mxCell>
        <mxCell id="1AWNu8xPyGZ1tLXDtP6U-35" value="Sant" style="text;html=1;strokeColor=none;fillColor=none;align=center;verticalAlign=middle;whiteSpace=wrap;rounded=0;" vertex="1" parent="1">
          <mxGeometry x="285" y="620" width="40" height="20" as="geometry" />
        </mxCell>
        <mxCell id="1AWNu8xPyGZ1tLXDtP6U-36" value="Fel" style="text;html=1;strokeColor=none;fillColor=none;align=center;verticalAlign=middle;whiteSpace=wrap;rounded=0;" vertex="1" parent="1">
          <mxGeometry x="418" y="720" width="40" height="20" as="geometry" />
        </mxCell>
        <mxCell id="1AWNu8xPyGZ1tLXDtP6U-37" value="Fel" style="text;html=1;strokeColor=none;fillColor=none;align=center;verticalAlign=middle;whiteSpace=wrap;rounded=0;" vertex="1" parent="1">
          <mxGeometry x="285" y="770" width="40" height="20" as="geometry" />
        </mxCell>
        <mxCell id="1AWNu8xPyGZ1tLXDtP6U-38" value="Rätt" style="text;html=1;strokeColor=none;fillColor=none;align=center;verticalAlign=middle;whiteSpace=wrap;rounded=0;" vertex="1" parent="1">
          <mxGeometry x="475" y="770" width="40" height="20" as="geometry" />
        </mxCell>
      </root>
    </mxGraphModel>
  </diagram>
</mxfile>
